<!--?xml version="1.0" encoding="utf-8"?-->
<!-- Generator: Adobe Illustrator 18.1.1, SVG Export Plug-In . SVG Version: 6.00 Build 0)  -->

<svg version="1.1" id="_x32_" xmlns="http://www.w3.org/2000/svg" xmlns:xlink="http://www.w3.org/1999/xlink" x="0px" y="0px" viewBox="-90 -80 700 700" style="width: 64px; height: 64px; opacity: 1;" xml:space="preserve">
<style type="text/css">
	.st0{fill:#4B4B4B;}
</style>
<g>
	<path class="st0" d="M341.092,323.126c-12.656,0-22.926,10.263-22.926,22.919c0,12.664,10.271,22.926,22.926,22.926
		c12.656,0,22.918-10.262,22.918-22.926C364.01,333.389,353.748,323.126,341.092,323.126z" style="fill: rgb(255, 255, 255);"></path>
	<path class="st0" d="M320.285,229.509c-32.392,5.733-60.23,24.621-77.78,50.956l8.934,5.958
		c15.971-23.958,41.282-41.134,70.716-46.352L320.285,229.509z" style="fill: rgb(255, 255, 255);"></path>
	<path class="st0" d="M327.455,269.312l-0.614-3.174l-0.399-2.094l-1.006-5.277c-24.065,4.595-44.74,18.696-57.928,38.292l4.455,3
		l1.778,1.205l2.676,1.795C288.042,285.799,306.266,273.368,327.455,269.312z" style="fill: rgb(255, 255, 255);"></path>
	<path class="st0" d="M417.974,397.167l-2.676-1.778l-1.794-1.18l-4.488-2.958c-11.983,18.166-31.212,31.062-53.565,34.726
		l0.864,5.294l0.35,2.111l0.506,3.191C382.558,432.409,404.38,417.784,417.974,397.167z" style="fill: rgb(255, 255, 255);"></path>
	<path class="st0" d="M430.747,405.668c-15.971,23.958-41.283,41.134-70.716,46.352l1.869,10.562
		c32.391-5.733,60.221-24.621,77.78-50.956L430.747,405.668z" style="fill: rgb(255, 255, 255);"></path>
	<path class="st0" d="M397.225,346.045c-0.008-30.996-25.137-56.133-56.133-56.133c-30.987,0-56.124,25.137-56.141,56.133
		c0.017,30.996,25.154,56.133,56.141,56.133C372.088,402.178,397.217,377.041,397.225,346.045z M341.092,388.774
		c-11.808,0-22.469-4.762-30.231-12.506c-7.729-7.754-12.507-18.424-12.507-30.223c0-11.817,4.778-22.47,12.507-30.223
		c7.762-7.744,18.423-12.522,30.231-12.522c11.817,0.008,22.47,4.778,30.215,12.522c7.736,7.754,12.522,18.406,12.531,30.223
		c-0.008,11.8-4.795,22.47-12.531,30.223C363.562,384.012,352.909,388.774,341.092,388.774z" style="fill: rgb(255, 255, 255);"></path>
	<path class="st0" d="M387.893,186.863V68.074L81.561,0L4.977,68.074v391.425h57.221V44.674l19.362-23.4v438.226h138.441
		C250.299,491.832,293.352,512,341.092,512c91.64,0,165.93-74.281,165.93-165.93C507.023,270.676,456.731,207.031,387.893,186.863z
		 M157.437,84.669l174.439,28.079v55.31l-174.439-19.146V84.669z M437.245,442.222c-24.672,24.598-58.543,39.829-96.153,39.829
		s-71.481-15.231-96.153-39.829c-2.21-2.21-4.254-4.504-6.299-6.806c-18.381-21.098-30.38-47.823-33.014-77.347
		c-0.341-3.914-0.516-7.911-0.516-12c0-37.61,15.232-71.481,39.829-96.153c24.672-24.588,58.543-39.821,96.153-39.821
		c16.42,0,32.168,2.892,46.801,8.252c18.722,6.888,35.483,17.699,49.352,31.568c24.597,24.672,39.829,58.543,39.829,96.153
		S461.842,417.551,437.245,442.222z" style="fill: rgb(255, 255, 255);"></path>
</g>
</svg>
