<!--?xml version="1.0" encoding="utf-8"?-->
<!-- Generator: Adobe Illustrator 18.0.0, SVG Export Plug-In . SVG Version: 6.00 Build 0)  -->

<svg version="1.1" id="_x32_" xmlns="http://www.w3.org/2000/svg" xmlns:xlink="http://www.w3.org/1999/xlink" x="0px" y="0px" viewBox="-120 -130 770 770" style="width: 100px; height: 100px; opacity: 1;" xml:space="preserve">
<style type="text/css">
	.st0{fill:#fff;}
</style>
<g>
	<path class="st0" d="M392.692,257.322c-1.172-8.125-2.488-16.98-3.807-25.984c-5.856-39.012-12.59-81.688-14.86-87.832
		c-4.318-11.715-18.371-44.723-68.217-25.984c-15.738,5.926-18.812,11.93-41.648,8.93c-17.273-2.27-28.326-15.59-52.336-24.668
		c-49.844-18.883-71.584,11.711-75.902,23.422c-2.27,6.148-9.004,67.121-14.86,106.133c-1.39,8.86-2.633,17.566-3.804,25.621
		c37.256,7.535,84.174,12.879,138.705,12.879C309.541,269.837,355.801,264.716,392.692,257.322z"></path>
	<path class="st0" d="M443.707,306.509c-8.051-2.196-16.834-4.246-26.057-6.148c-1.83-0.805-3.66-1.535-5.49-2.27h-0.072
		c-46.918,10.394-102.254,15.664-156.125,15.664c-53.652,0-108.768-5.27-155.541-15.516c-1.316,0.512-2.707,1.098-4.098,1.684
		c-8.858,1.828-17.348,3.73-25.106,5.781l-0.148,0.074C27.008,317.49,0,333.372,0,350.939c0,36.012,114.549,65.289,256.035,65.289
		c141.34,0,255.965-29.278,255.965-65.289C512,333.74,486.016,318.22,443.707,306.509z"></path>
</g>
</svg>
