<!--?xml version="1.0" encoding="utf-8"?-->
<!-- Generator: Adobe Illustrator 18.1.1, SVG Export Plug-In . SVG Version: 6.00 Build 0)  -->

<svg version="1.1" id="_x32_" xmlns="http://www.w3.org/2000/svg" xmlns:xlink="http://www.w3.org/1999/xlink" x="0px" y="0px" viewBox="-90 -80 700 700" style="width: 64px; height: 64px; opacity: 1;" xml:space="preserve">
<style type="text/css">
	.st0{fill:#4B4B4B;}
</style>
<g>
	<polygon class="st0" points="138.428,358.367 113.502,363.804 27.327,449.986 62.022,484.677 148.196,398.503 153.636,373.579 
		216.741,310.467 201.533,295.263 	" style="fill: rgb(255, 255, 255);"></polygon>
	
		<rect x="-1.699" y="469.646" transform="matrix(-0.7072 -0.707 0.707 -0.7072 -286.7766 842.932)" class="st0" width="65.712" height="22.405" style="fill: rgb(255, 255, 255);"></rect>
	<path class="st0" d="M465.73,123.257l-35.291,35.291l-36.085-36.086l48.041-48.04c-0.775-0.834-1.527-1.675-2.337-2.484
		c-1.336-1.34-2.726-2.625-4.14-3.872l-47.979,47.979l-36.085-36.086l34.107-34.106c-3.872-0.538-7.816-0.865-11.827-1.005
		l-28.698,28.694l-20.768-20.772c-3.108,1.09-6.184,2.297-9.237,3.598l23.596,23.592l-40.1,40.096l-31.98-31.98
		c-1.651,1.534-3.291,3.1-4.899,4.712c-0.538,0.53-1.055,1.091-1.589,1.636l32.054,32.051l-40.092,40.088l-24.098-24.098
		c-1.277,3.116-2.407,6.262-3.408,9.424l21.092,21.092l-25.785,25.782c0.432,3.691,1.052,7.344,1.873,10.958l30.326-30.33
		l36.089,36.086l-41.6,41.607c1.258,1.386,2.563,2.757,3.91,4.104c0.802,0.802,1.628,1.581,2.45,2.36l41.654-41.654l36.082,36.086
		l-31.319,31.318c2.781,0.701,5.588,1.309,8.432,1.784c0.755,0.132,1.515,0.226,2.278,0.335l27.023-27.019l22.688,22.681
		c3.162-0.989,6.309-2.118,9.44-3.388l-25.711-25.71l40.093-40.088l33.644,33.64c0.549-0.522,1.102-1.028,1.639-1.566
		c1.616-1.621,3.17-3.256,4.709-4.915l-33.578-33.577l40.096-40.096l25.17,25.165c1.297-3.053,2.488-6.13,3.587-9.245
		l-22.338-22.338l30.182-30.182C466.801,130.874,466.361,127.027,465.73,123.257z M345.437,86.37l36.089,36.092l-40.096,40.097
		l-36.089-36.085L345.437,86.37z M258.835,172.98l40.092-40.096l36.085,36.093l-40.089,40.088L258.835,172.98z M337.419,251.568
		l-36.082-36.092l40.093-40.089l36.081,36.085L337.419,251.568z M383.929,205.054l-36.085-36.077l40.096-40.104l36.085,36.085
		L383.929,205.054z" style="fill: rgb(255, 255, 255);"></path>
	<path class="st0" d="M504.931,93.979c-6.406-20.103-17.318-38.702-32.767-54.147c-15.438-15.438-34.037-26.349-54.144-32.759
		c-30.189-9.628-63.684-9.261-96.252,0.093c-32.581,9.362-64.339,27.751-91.23,54.63c-17.914,17.922-31.521,37.487-40.828,57.769
		c-13.973,30.414-18.241,62.48-13.167,92.647c5.047,30.181,19.468,58.399,42.168,81.08c15.122,15.118,32.701,26.591,51.682,34.037
		c28.48,11.184,60.094,13.28,91.21,5.717c31.135-7.547,61.729-24.706,88.6-51.585c35.828-35.851,56.604-80.341,60.954-123.95
		C513.319,135.711,511.349,114.097,504.931,93.979z M477.277,182.319c-7.968,27.751-23.842,55.362-47.356,78.861
		c-15.674,15.686-32.428,27.238-49.442,35.05c-25.532,11.706-51.628,15.032-75.944,10.951
		c-24.324-4.097-46.931-15.577-65.546-34.161c-12.4-12.408-21.622-26.606-27.619-41.88c-8.98-22.922-10.756-48.328-4.545-73.984
		c6.223-25.633,20.484-51.554,43.991-75.084c31.334-31.35,69.993-49.084,106.507-52.691c18.248-1.807,35.933-0.116,51.978,5.008
		c16.064,5.14,30.501,13.646,42.588,25.718c12.084,12.096,20.589,26.536,25.722,42.596
		C485.303,126.754,485.257,154.552,477.277,182.319z" style="fill: rgb(255, 255, 255);"></path>
</g>
</svg>
