<!--?xml version="1.0" encoding="utf-8"?-->
<!-- Generator: Adobe Illustrator 18.1.1, SVG Export Plug-In . SVG Version: 6.00 Build 0)  -->

<svg version="1.1" id="_x32_" xmlns="http://www.w3.org/2000/svg" xmlns:xlink="http://www.w3.org/1999/xlink" x="0px" y="0px" viewBox="-90 -80 700 700" style="width: 64px; height: 64px; opacity: 1;" xml:space="preserve">
<style type="text/css">
	.st0{fill:#4B4B4B;}
</style>
<g>
	<path class="st0" d="M247.225,104.893l-36.838-34.596l-0.124-0.132c-2.512-2.637-3.868-6.102-3.868-9.566
		c0-1.809,0.389-3.677,1.158-5.406c2.19-5.091,7.142-8.431,12.672-8.431H256h35.775c5.53,0,10.482,3.34,12.672,8.431
		c0.769,1.729,1.158,3.597,1.158,5.406c0,3.464-1.356,6.929-3.868,9.566l-0.124,0.132l-36.838,34.596l39.68,32.559l28.428-74.406
		l-9.837-18.408c-4.388-8.219-12.9-13.39-22.216-13.492c0,0-29.154-0.506-44.829-0.506c-15.675,0-44.829,0.506-44.829,0.506
		c-9.318,0.102-17.829,5.274-22.217,13.492l-9.837,18.408l28.428,74.406L247.225,104.893z" style="fill: rgb(255, 255, 255);"></path>
	<polygon class="st0" points="0,434.905 61.244,451.049 70.532,415.699 8.87,399.444 	" style="fill: rgb(255, 255, 255);"></polygon>
	<polygon class="st0" points="503.13,399.444 441.468,415.699 450.756,451.049 512,434.905 	" style="fill: rgb(255, 255, 255);"></polygon>
	<path class="st0" d="M388.765,243.284l0.447-0.52l0.6,0.447l0.227,0.146l48.008,159.098l61.727-16.283l-59.479-237.695v-0.073
		c-4.797-21.228-19.052-39.079-38.632-48.535l-59.779-28.802l-32.479,84.984L256,112.248l-53.406,43.803l-32.479-84.984
		l-59.779,28.802c-19.58,9.456-33.834,27.307-38.632,48.535v0.073L12.226,386.172l61.727,16.283l48.008-159.098l0.227-0.146
		l0.6-0.447l0.447,0.52l0.227,0.227l3.15,70.956l-22.429,140.639l95.635,26.253l50.256-55.809L256,418.05l5.926,7.501l50.256,55.809
		l95.635-26.253l-22.429-140.639l3.15-70.956L388.765,243.284z M256,394.5c-5.626,0-10.13-4.497-10.13-10.05
		c0-5.552,4.505-10.123,10.13-10.123c5.626,0,10.13,4.571,10.13,10.123C266.13,390.003,261.626,394.5,256,394.5z M256,340.119
		c-5.626,0-10.13-4.498-10.13-10.05s4.505-10.123,10.13-10.123c5.626,0,10.13,4.571,10.13,10.123S261.626,340.119,256,340.119z
		 M256,285.739c-5.626,0-10.13-4.498-10.13-10.05s4.505-10.123,10.13-10.123c5.626,0,10.13,4.571,10.13,10.123
		S261.626,285.739,256,285.739z M256,231.359c-5.626,0-10.13-4.498-10.13-10.05c0-5.552,4.505-10.123,10.13-10.123
		c5.626,0,10.13,4.571,10.13,10.123C266.13,226.861,261.626,231.359,256,231.359z M256,176.978c-5.626,0-10.13-4.497-10.13-10.049
		s4.505-10.123,10.13-10.123c5.626,0,10.13,4.571,10.13,10.123S261.626,176.978,256,176.978z" style="fill: rgb(255, 255, 255);"></path>
</g>
</svg>
